<?xml version="1.0" encoding="UTF-8"?>
<svg version="1.1" xmlns="http://www.w3.org/2000/svg" width="281" height="284">
<path d="M0 0 C92.73 0 185.46 0 281 0 C281 93.72 281 187.44 281 284 C188.27 284 95.54 284 0 284 C0 190.28 0 96.56 0 0 Z " fill="#015FD0" transform="translate(0,0)"/>
<path d="M0 0 C1.00740234 -0.01611328 2.01480469 -0.03222656 3.05273438 -0.04882812 C20.59121519 -0.06010689 37.3767026 7.3524072 50.0625 19.3125 C66.35928296 35.87330327 73.53497995 54.25524135 73.56665039 77.33740234 C73.2827342 91.18853535 68.47915373 102.92876305 61.28515625 114.61328125 C59.84845886 117.78503173 59.90571181 119.07023452 61.0625 122.3125 C65.10544614 127.70309486 69.91926123 132.2836576 74.875 136.8359375 C75.55820312 137.465 76.24140625 138.0940625 76.9453125 138.7421875 C78.35288492 140.03549205 79.76433466 141.32458977 81.1796875 142.609375 C83.18937029 144.46738361 85.13808285 146.36654087 87.0625 148.3125 C87.59488281 148.83360352 88.12726563 149.35470703 88.67578125 149.89160156 C92.88114259 154.69815188 92.48203385 159.5374565 92.23828125 165.71484375 C92.15126953 167.00068359 92.15126953 167.00068359 92.0625 168.3125 C65.63651999 170.90745725 65.63651999 170.90745725 58.11328125 165.359375 C54.23032169 161.75282147 51.08986639 157.64441881 48.0625 153.3125 C43.86497292 147.55172709 43.86497292 147.55172709 39.0625 142.3125 C35.28854409 141.80077717 34.42462889 141.97885554 31.0625 143.3125 C30.0209375 143.68117188 28.979375 144.04984375 27.90625 144.4296875 C25.49983748 145.28683886 23.09761667 146.15582864 20.69921875 147.03515625 C3.25405224 153.16251334 -13.14744307 153.34092465 -29.88769531 145.38574219 C-48.04948714 136.10753525 -61.61935362 121.61682704 -68.94140625 102.48828125 C-75.49941618 81.57980252 -74.47330393 60.59691584 -65.0625 40.6875 C-62.1981667 35.43986648 -58.82633314 30.84015584 -54.9375 26.3125 C-54.25816406 25.48878906 -53.57882813 24.66507813 -52.87890625 23.81640625 C-38.80187187 7.33046759 -21.37891783 -0.06812912 0 0 Z " fill="#F8FBFD" transform="translate(188.9375,115.6875)"/>
<path d="M0 0 C33.969375 -0.103125 67.93875 -0.20625 102.9375 -0.3125 C113.66241943 -0.35802002 124.38733887 -0.40354004 135.43725586 -0.45043945 C148.53625488 -0.47302246 148.53625488 -0.47302246 154.66896057 -0.47721863 C158.95119689 -0.48187592 163.23312311 -0.50060901 167.51527405 -0.52787781 C172.9808496 -0.56222062 178.44597543 -0.57244722 183.91164887 -0.56536138 C185.91538832 -0.56684266 187.9191438 -0.5767301 189.92279041 -0.59607565 C209.90419827 -0.78000666 209.90419827 -0.78000666 218.48828125 7.359375 C225.56101499 16.62813956 229.13410554 24.42573538 229.11352539 36.17700195 C229.11367142 36.87998917 229.11381744 37.58297638 229.1139679 38.30726624 C229.11327441 40.61763659 229.10550857 42.92792508 229.09765625 45.23828125 C229.09579006 46.84539241 229.09436711 48.45250415 229.09336853 50.05961609 C229.08955915 54.27968937 229.07974239 58.49972797 229.06866455 62.7197876 C229.05841643 67.02998384 229.05386363 71.3401857 229.04882812 75.65039062 C229.03811867 84.10027629 229.02106127 92.55013383 229 101 C220.64992416 100.70854884 213.69804448 99.25803064 206 96 C205.99413376 95.26608032 205.98826752 94.53216064 205.98222351 93.77600098 C205.92412644 86.8322761 205.85195318 79.88882195 205.76428509 72.94541168 C205.71971034 69.37639154 205.68042676 65.80748214 205.65356445 62.23828125 C205.62740149 58.78860138 205.5869099 55.33935072 205.53681374 51.88993835 C205.51220684 49.94483186 205.50213393 47.99955885 205.49235535 46.05432129 C205.38069979 39.28170586 204.7392625 34.1919268 202 28 C202 27.01 202 26.02 202 25 C197.48159631 23.26133518 193.73336093 22.74734631 188.9029541 22.73930359 C187.86643385 22.73356527 187.86643385 22.73356527 186.80897379 22.72771102 C184.50603414 22.71743681 182.20334641 22.72136242 179.90039062 22.7253418 C178.24423493 22.72099229 176.58808125 22.71580834 174.93193054 22.70985413 C170.442334 22.69648012 165.95282173 22.69588357 161.46320915 22.69841743 C157.71310643 22.699488 153.9630207 22.69460168 150.21292162 22.689812 C141.36605588 22.67872283 132.51923261 22.67827642 123.67236328 22.68432617 C114.54848333 22.69036941 105.42475746 22.67804473 96.3009038 22.6567561 C88.462952 22.63914096 80.62504925 22.63313852 72.78707838 22.63639385 C68.10770953 22.63820663 63.42845065 22.63557078 58.74909973 22.62167931 C54.34956171 22.60910664 49.95026407 22.61103971 45.55072975 22.62409019 C43.93746166 22.62645657 42.32417668 22.62371909 40.71092796 22.61546707 C38.50602194 22.60500294 36.30192311 22.61309671 34.0970459 22.6257782 C32.24763523 22.62552659 32.24763523 22.62552659 30.36086273 22.62526989 C26.54483116 23.0507505 24.19297392 23.86957879 21 26 C18.29397548 30.23829886 18.71742705 35.08139633 18.73930359 39.95091248 C18.73547804 40.85341628 18.73165249 41.75592008 18.72771102 42.68577248 C18.71739085 45.7104147 18.72137132 48.73486674 18.7253418 51.75952148 C18.7209948 53.92783789 18.71581169 56.09615275 18.70985413 58.26446533 C18.696452 64.15489741 18.69588679 70.04526536 18.69841743 75.93570971 C18.69948625 80.8513796 18.69460605 85.76703646 18.689812 90.68270355 C18.67871274 102.27814363 18.67828186 113.87355132 18.68432617 125.46899414 C18.69036811 137.4358653 18.67805025 149.40261895 18.6567561 161.36947006 C18.63915078 171.64050021 18.63313704 181.91149293 18.63639385 192.18253762 C18.63820846 198.31843991 18.63555268 204.45425837 18.62167931 210.59014702 C18.60912294 216.3595274 18.61102439 222.12872431 18.62409019 227.89810181 C18.62646025 230.01609928 18.62370599 232.13410958 18.61546707 234.25209236 C18.60503442 237.14231021 18.61307245 240.03190849 18.6257782 242.92210388 C18.61840391 243.76111581 18.61102963 244.60012773 18.60343188 245.46456426 C18.64894137 250.3820302 19.30283607 253.72665365 22 258 C26.3017644 261.78147038 30.77608331 261.39054538 36.20556641 261.29296875 C37.12497009 261.28858795 38.04437378 261.28420715 38.99163818 261.2796936 C40.9848884 261.26829364 42.97810837 261.24996269 44.971241 261.22549438 C48.13358884 261.18711128 51.29555772 261.16763196 54.45809937 261.15307617 C62.31699106 261.1130097 70.17552477 261.04062647 78.03417969 260.96887207 C84.66995639 260.90946216 91.3055955 260.8626182 97.94157028 260.83218384 C101.04305506 260.81286445 104.14396973 260.77533265 107.24526978 260.73706055 C120.76425039 260.63103108 131.54920244 260.60872634 141.6953125 270.51171875 C151 280.55762712 151 280.55762712 151 284 C101.17 284 51.34 284 0 284 C0 190.28 0 96.56 0 0 Z " fill="#FBFCFD" transform="translate(0,0)"/>
<path d="M0 0 C9.92492886 7.30499422 17.39982963 16.79724106 20.515625 28.8515625 C20.82330108 32.41750608 20.84923756 35.96138775 20.828125 39.5390625 C20.82248535 40.52567871 20.8168457 41.51229492 20.81103516 42.52880859 C20.69661804 49.37684319 20.21344347 55.48511968 17.515625 61.8515625 C17.1134375 62.82996094 16.71125 63.80835938 16.296875 64.81640625 C10.08785044 78.49350756 0.09733502 87.29229638 -13.546875 93.2890625 C-25.77739568 97.34840556 -42.04483161 96.01081596 -53.48046875 90.375 C-65.46953284 83.24988457 -72.81060852 72.14539193 -76.921875 58.9140625 C-79.73796426 44.46226376 -77.54396325 28.61423246 -69.796875 16.1328125 C-54.20581482 -6.75084035 -23.91645868 -15.26742488 0 0 Z " fill="#015FD0" transform="translate(217.484375,147.1484375)"/>
<path d="M0 0 C0.93790878 -0.0071553 1.87581757 -0.01431061 2.84214783 -0.02168274 C3.87438477 -0.02437164 4.9066217 -0.02706055 5.97013855 -0.02983093 C7.05479904 -0.03640213 8.13945953 -0.04297333 9.25698853 -0.04974365 C12.85823123 -0.06950783 16.45943219 -0.08114567 20.06071472 -0.09111023 C21.2882868 -0.09518576 22.51585888 -0.09926128 23.78063011 -0.10346031 C29.60640639 -0.12217957 35.43216618 -0.1367429 41.25796682 -0.14507228 C47.98139553 -0.15484387 54.70449495 -0.18116083 61.42780763 -0.22157317 C67.25197531 -0.25537871 73.07603254 -0.26721784 78.90028954 -0.27127647 C81.37745587 -0.27615622 83.85461833 -0.28780938 86.33172035 -0.30631447 C89.79609707 -0.3305879 93.25960958 -0.32976213 96.7240448 -0.32279968 C97.75020905 -0.33560974 98.77637329 -0.3484198 99.83363342 -0.36161804 C104.26286936 -0.32911927 106.81263052 -0.29843842 110.65475464 2.05154419 C114.18844726 5.97711029 113.80791486 9.33199634 113.76774597 14.44013977 C113.49415617 17.70906617 112.69174769 19.66575076 110.54118347 22.14717102 C108.15125053 23.34213749 106.66819936 23.28066253 103.99971008 23.29434204 C102.56543671 23.305075 102.56543671 23.305075 101.10218811 23.31602478 C100.04967865 23.31871368 98.99716919 23.32140259 97.9127655 23.32417297 C96.80699158 23.33074417 95.70121765 23.33731537 94.56193542 23.34408569 C90.89095499 23.36384897 87.22001547 23.37548688 83.54899597 23.38545227 C81.67266794 23.39156556 81.67266794 23.39156556 79.7584343 23.39780235 C73.82320368 23.41652037 67.88798614 23.43108465 61.95273316 23.43941432 C55.09968624 23.44919074 48.24696198 23.47552101 41.39402878 23.51591522 C35.45988041 23.54969452 29.52581129 23.56155765 23.59156418 23.56561852 C21.06612329 23.570502 18.54068629 23.58216564 16.01530838 23.60065651 C12.48607147 23.62489517 8.95768442 23.62411072 5.4283905 23.61714172 C4.3799295 23.62995178 3.33146851 23.64276184 2.25123596 23.65596008 C-4.82965692 23.60483999 -4.82965692 23.60483999 -8.07676697 21.24279785 C-11.23304694 16.45687324 -11.06693547 11.76619002 -10.45881653 6.14717102 C-7.57557458 1.34176777 -5.44345312 0.02845256 0 0 Z " fill="#FBFDFD" transform="translate(59.45881652832031,56.85282897949219)"/>
<path d="M0 0 C1.47689552 -0.01429802 1.47689552 -0.01429802 2.98362732 -0.02888489 C4.04098587 -0.02797348 5.09834442 -0.02706207 6.18774414 -0.02612305 C7.28002823 -0.03040817 8.37231232 -0.0346933 9.49769592 -0.03910828 C11.80672513 -0.04484893 14.11577242 -0.0453538 16.42480469 -0.04101562 C19.95612464 -0.0378568 23.48660595 -0.06131507 27.01782227 -0.08666992 C29.26196183 -0.08894305 31.50610365 -0.08964635 33.75024414 -0.08862305 C35.33324562 -0.10243767 35.33324562 -0.10243767 36.94822693 -0.11653137 C46.19223205 -0.05823826 46.19223205 -0.05823826 50.03540039 3.2746582 C52.57302898 7.08110108 52.55482598 8.74823518 52.03540039 13.2746582 C49.89614793 17.91964861 47.37576123 21.49996057 43.03540039 24.2746582 C40.72779846 24.66906738 40.72779846 24.66906738 38.16259766 24.69458008 C37.19802139 24.71049194 36.23344513 24.72640381 35.23963928 24.74279785 C33.68641212 24.74309998 33.68641212 24.74309998 32.10180664 24.7434082 C31.0317186 24.75102173 29.96163055 24.75863525 28.8591156 24.76647949 C26.59718152 24.77727971 24.33519758 24.78013393 22.07324219 24.77563477 C18.61381817 24.77466268 15.15661341 24.81628294 11.69750977 24.8605957 C9.49894668 24.86580289 7.30037589 24.86849089 5.10180664 24.8684082 C3.55161583 24.8930011 3.55161583 24.8930011 1.97010803 24.91809082 C-5.21958103 24.84895668 -5.21958103 24.84895668 -9.09375 21.86254883 C-12.55372934 17.07646231 -12.47551631 13.0680886 -11.96459961 7.2746582 C-10.71696435 4.28033357 -9.91053809 2.85714386 -7.16551208 1.16682434 C-4.6249814 0.13698991 -2.73742661 0.01459293 0 0 Z " fill="#F4F8FC" transform="translate(60.964599609375,110.725341796875)"/>
<path d="M0 0 C0.73997726 -0.00807175 1.47995453 -0.01614349 2.24235535 -0.02445984 C3.8100653 -0.03829758 5.37780534 -0.04902113 6.94555664 -0.05688477 C9.33603507 -0.07407897 11.72512334 -0.11796224 14.11523438 -0.16210938 C15.63931276 -0.17223831 17.16340289 -0.18075378 18.6875 -0.1875 C19.75494194 -0.21376213 19.75494194 -0.21376213 20.84394836 -0.24055481 C24.46568006 -0.22483133 26.40413439 0.14812862 29.47143555 2.13989258 C32.7417694 5.45262321 32.7259822 7.54703134 32.79296875 12.11328125 C32.81875 13.16257813 32.84453125 14.211875 32.87109375 15.29296875 C32.50338939 18.5935531 31.86547985 19.90491729 29.54296875 22.23828125 C23.89572059 24.1206973 17.56040738 23.58474597 11.63769531 23.64331055 C9.99457817 23.66491341 8.35157681 23.69904421 6.70898438 23.74584961 C4.33281416 23.81288815 1.95901383 23.84030729 -0.41796875 23.859375 C-1.51351578 23.90112099 -1.51351578 23.90112099 -2.63119507 23.94371033 C-5.49143028 23.93222034 -7.76799979 23.79333824 -10.04460144 21.95939636 C-13.86750853 17.55747039 -14.14151432 14.39267699 -13.890625 8.8046875 C-13.30868833 5.36025155 -12.05946133 3.53454309 -9.45703125 1.23828125 C-6.44134834 -0.2695602 -3.31019091 0.03407013 0 0 Z " fill="#F8FAFD" transform="translate(62.45703125,165.76171875)"/>
<path d="M0 0 C5.28 0 10.56 0 16 0 C14.35 1.32 12.7 2.64 11 4 C9.61683038 5.17797413 8.24128907 6.36498782 6.875 7.5625 C6.21242188 8.14128906 5.54984375 8.72007813 4.8671875 9.31640625 C3.19501094 10.82416377 1.59209095 12.40790905 0 14 C0 9.38 0 4.76 0 0 Z " fill="#0562D1" transform="translate(0,0)"/>
<path d="M0 0 C0.94875 0.86625 1.8975 1.7325 2.875 2.625 C6.65027004 5.8886318 10.7282437 8.34196848 15.05859375 10.80078125 C15.69925781 11.19652344 16.33992188 11.59226562 17 12 C17 12.33 17 12.66 17 13 C11.39 13 5.78 13 0 13 C0 8.71 0 4.42 0 0 Z " fill="#0864D1" transform="translate(0,271)"/>
<path d="M0 0 C2.375 0.25 2.375 0.25 5 1 C6.3125 3.0625 6.3125 3.0625 7 5 C6.01 5 5.02 5 4 5 C1.8125 2.5 1.8125 2.5 0 0 Z " fill="#155BCF" transform="translate(151,226)"/>
</svg>
